<svg width="33" height="33" viewBox="0 0 33 33" fill="none" xmlns="http://www.w3.org/2000/svg">
<path d="M14.875 19.75H11.625C11.625 11.6737 18.1737 5.125 26.25 5.125V8.375C19.9613 8.375 14.875 13.4613 14.875 19.75ZM26.25 14.875V11.625C21.765 11.625 18.125 15.265 18.125 19.75H21.375C21.375 17.0525 23.5525 14.875 26.25 14.875ZM8.375 3.5C8.375 1.69625 6.92875 0.25 5.125 0.25C3.32125 0.25 1.875 1.69625 1.875 3.5C1.875 5.30375 3.32125 6.75 5.125 6.75C6.92875 6.75 8.375 5.30375 8.375 3.5ZM15.6062 4.3125H12.3562C11.9662 6.62 9.98375 8.375 7.5625 8.375H2.6875C1.33875 8.375 0.25 9.46375 0.25 10.8125V14.875H10V11.2025C13.0225 10.2437 15.2812 7.57875 15.6062 4.3125ZM27.875 24.625C29.6787 24.625 31.125 23.1787 31.125 21.375C31.125 19.5713 29.6787 18.125 27.875 18.125C26.0713 18.125 24.625 19.5713 24.625 21.375C24.625 23.1787 26.0713 24.625 27.875 24.625ZM30.3125 26.25H25.4375C23.0163 26.25 21.0338 24.495 20.6438 22.1875H17.3938C17.7188 25.4538 19.9775 28.1187 23 29.0775V32.75H32.75V28.6875C32.75 27.3388 31.6612 26.25 30.3125 26.25Z" fill="white"/>
</svg>
