<svg width="23" height="26" viewBox="0 0 23 26" fill="none" xmlns="http://www.w3.org/2000/svg">
<path d="M11.2679 5.24992C12.6946 5.24992 13.8512 4.09332 13.8512 2.66659C13.8512 1.23985 12.6946 0.083252 11.2679 0.083252C9.84117 0.083252 8.68457 1.23985 8.68457 2.66659C8.68457 4.09332 9.84117 5.24992 11.2679 5.24992Z" fill="white"/>
<path d="M16.2925 7.97533C15.7887 7.47158 14.9233 6.54158 13.2442 6.54158C12.9729 6.54158 11.41 6.54158 9.96332 6.54158C6.41124 6.52867 3.5179 3.63534 3.5179 0.083252H0.93457C0.93457 4.16492 3.65999 7.62659 7.3929 8.75033V25.9166H9.97624V18.1666H12.5596V25.9166H15.1429V10.4812L20.245 15.5833L22.0662 13.762L16.2925 7.97533Z" fill="white"/>
</svg>
